<svg width="58.181671" height="56.745239" viewBox="0 0 58.1817 56.7452" fill="none" xmlns="http://www.w3.org/2000/svg" xmlns:xlink="http://www.w3.org/1999/xlink">
	<desc>
			Created with Pixso.
	</desc>
	<defs/>
	<path id="Vector" d="M29.0908 0C13.0229 0 0 13.0229 0 29.0908C0 41.9417 8.33292 52.847 19.8946 56.6971C21.35 56.9596 21.875 56.0642 21.875 55.2942C21.875 54.6029 21.8517 52.7712 21.8429 50.3475C13.7492 52.1033 12.04 46.4449 12.04 46.4449C10.7217 43.085 8.81125 42.1896 8.81125 42.1896C6.17166 40.3842 9.01251 40.425 9.01251 40.425C11.935 40.6292 13.4662 43.4233 13.4662 43.4233C16.0621 47.8683 20.2796 46.585 21.9304 45.8412C22.1958 43.96 22.9542 42.6766 23.7825 41.9504C17.325 41.2184 10.535 38.7217 10.535 27.5713C10.535 24.4009 11.6696 21.7992 13.5217 19.7692C13.2271 19.0312 12.2208 16.0708 13.8104 12.0692C13.8104 12.0692 16.2517 11.2845 21.8079 15.0471C24.1809 14.4015 26.6287 14.072 29.0879 14.0671C31.5472 14.071 33.9951 14.4006 36.3679 15.0471C41.9271 11.2816 44.3654 12.0692 44.3654 12.0692C45.955 16.0708 44.9575 19.0312 44.6542 19.7692C46.5208 21.7992 47.6408 24.3979 47.6408 27.5713C47.6408 38.7509 40.845 41.2067 34.3642 41.9271C35.3996 42.8254 36.3329 44.5988 36.3329 47.3113C36.3329 51.202 36.2979 54.3405 36.2979 55.2942C36.2979 56.0729 36.8171 56.9771 38.3017 56.6913C49.8575 52.8354 58.1817 41.9387 58.1817 29.0908C58.1817 13.0229 45.1588 0 29.0908 0Z" fill="#CCCCCC" fill-opacity="1.000000" fill-rule="evenodd"/>
</svg>
