<svg width="52.500000" height="52.500000" viewBox="0 0 52.5 52.5" fill="none" xmlns="http://www.w3.org/2000/svg" xmlns:xlink="http://www.w3.org/1999/xlink">
	<desc>
			Created with Pixso.
	</desc>
	<defs/>
	<path id="Vector" d="M49.5833 0L2.91666 0C2.14312 0 1.40125 0.307251 0.854271 0.854248C0.307289 1.40125 0 2.14307 0 2.91663L0 49.5834C0 50.3569 0.307289 51.0988 0.854271 51.6458C1.40125 52.1927 2.14312 52.5 2.91666 52.5L49.5833 52.5C50.3569 52.5 51.0988 52.1927 51.6457 51.6458C52.1927 51.0988 52.5 50.3569 52.5 49.5834L52.5 2.91663C52.5 2.14307 52.1927 1.40125 51.6457 0.854248C51.0988 0.307251 50.3569 0 49.5833 0ZM15.5721 44.7329L7.77875 44.7329L7.77875 19.6787L15.5721 19.6787L15.5721 44.7329ZM11.6754 16.2574C10.478 16.2574 9.32956 15.7819 8.48283 14.9351C7.63611 14.0884 7.16042 12.9399 7.16042 11.7426C7.16042 10.545 7.63611 9.39661 8.48283 8.54993C9.32956 7.70325 10.478 7.22754 11.6754 7.22754C12.8729 7.22754 14.0213 7.70325 14.868 8.54993C15.7147 9.39661 16.1904 10.545 16.1904 11.7426C16.1904 12.9399 15.7147 14.0884 14.868 14.9351C14.0213 15.7819 12.8729 16.2574 11.6754 16.2574ZM44.7358 44.7329L36.9512 44.7329L36.9512 32.55C36.9512 29.645 36.8987 25.9087 32.9029 25.9087C28.8488 25.9087 28.2333 29.0763 28.2333 32.3458L28.2333 44.7358L20.4546 44.7358L20.4546 19.6816L27.9212 19.6816L27.9212 23.1058L28.0292 23.1058C29.0646 21.1371 31.6079 19.0604 35.3908 19.0604C43.2775 19.0604 44.7329 24.2462 44.7329 30.9954L44.7329 44.7329L44.7358 44.7329Z" fill="#CCCCCC" fill-opacity="1.000000" fill-rule="nonzero"/>
</svg>
