<svg width="52.523315" height="52.610840" viewBox="0 0 52.5233 52.6108" fill="none" xmlns="http://www.w3.org/2000/svg" xmlns:xlink="http://www.w3.org/1999/xlink">
	<desc>
			Created with Pixso.
	</desc>
	<defs/>
	<path id="Vector" d="M52.3542 15.5283C52.3247 13.3193 51.9112 11.1322 51.1321 9.06494C50.4564 7.32129 49.4245 5.73767 48.1022 4.41528C46.7798 3.09302 45.1962 2.06104 43.4525 1.38538C41.4118 0.619385 39.2559 0.2052 37.0767 0.1604C34.2708 0.0350342 33.3813 0 26.2588 0C19.1363 0 18.2233 0 15.4379 0.1604C13.2596 0.205444 11.1048 0.619751 9.065 1.38538C7.32101 2.06055 5.73715 3.09241 4.41476 4.41479C3.09238 5.73718 2.06061 7.32104 1.38541 9.06494C0.617828 11.1041 0.204529 13.2595 0.16333 15.4379C0.0379028 18.2467 0 19.1362 0 26.2588C0 33.3812 0 34.2913 0.16333 37.0796C0.207092 39.2612 0.618347 41.4137 1.38541 43.4584C2.06174 45.2018 3.09427 46.785 4.41711 48.1068C5.73993 49.4287 7.32394 50.46 9.0679 51.135C11.1021 51.9319 13.2573 52.3757 15.4408 52.4475C18.2496 52.5729 19.1392 52.6108 26.2617 52.6108C33.3842 52.6108 34.2971 52.6108 37.0825 52.4475C39.2617 52.4045 41.4177 51.9913 43.4583 51.2255C45.2016 50.549 46.7848 49.5167 48.107 48.1946C49.4293 46.8723 50.4615 45.2891 51.1379 43.5458C51.905 41.5042 52.3163 39.3517 52.36 37.1671C52.4854 34.3612 52.5233 33.4717 52.5233 26.3462C52.5175 19.2238 52.5175 18.3196 52.3542 15.5283ZM26.2412 39.7279C18.7921 39.7279 12.7575 33.6934 12.7575 26.2441C12.7575 18.795 18.7921 12.7604 26.2412 12.7604C29.8174 12.7604 33.247 14.181 35.7757 16.7097C38.3044 19.2384 39.725 22.6681 39.725 26.2441C39.725 29.8203 38.3044 33.2499 35.7757 35.7786C33.247 38.3073 29.8174 39.7279 26.2412 39.7279ZM40.2617 15.4059C39.8487 15.4062 39.4396 15.3252 39.058 15.1672C38.6764 15.0094 38.3296 14.7778 38.0375 14.4858C37.7455 14.1937 37.5139 13.8469 37.356 13.4653C37.1982 13.0837 37.1171 12.6747 37.1175 12.2617C37.1175 11.849 37.1988 11.4403 37.3567 11.059C37.5146 10.6777 37.7462 10.3313 38.038 10.0394C38.3298 9.74756 38.6763 9.51611 39.0576 9.35815C39.4388 9.2002 39.8475 9.11902 40.2602 9.11902C40.6729 9.11902 41.0816 9.2002 41.4629 9.35815C41.8442 9.51611 42.1906 9.74756 42.4825 10.0394C42.7743 10.3313 43.0058 10.6777 43.1637 11.059C43.3216 11.4403 43.4029 11.849 43.4029 12.2617C43.4029 14 41.9971 15.4059 40.2617 15.4059Z" fill="#CCCCCC" fill-opacity="1.000000" fill-rule="nonzero"/>
</svg>
