<svg width="58.333344" height="58.333374" viewBox="0 0 58.3333 58.3334" fill="none" xmlns="http://www.w3.org/2000/svg" xmlns:xlink="http://www.w3.org/1999/xlink">
	<desc>
			Created with Pixso.
	</desc>
	<defs/>
	<path id="Vector" d="M20.5333 56.9917C23.3333 57.8375 26.1625 58.3334 29.1667 58.3334C36.9022 58.3334 44.3208 55.2604 49.7906 49.7906C55.2604 44.3208 58.3333 36.9021 58.3333 29.1666C58.3333 25.3364 57.5789 21.5437 56.1132 18.0051C54.6474 14.4664 52.499 11.2511 49.7906 8.54272C47.0822 5.83435 43.8669 3.68591 40.3283 2.22021C36.7896 0.754395 32.9969 0 29.1667 0C25.3364 0 21.5437 0.754395 18.0051 2.22021C14.4664 3.68591 11.2511 5.83435 8.54272 8.54272C3.07291 14.0126 0 21.4312 0 29.1666C0 41.5625 7.78751 52.2084 18.7833 56.4083C18.5208 54.1333 18.2583 50.3708 18.7833 47.775L22.1375 33.3667C22.1375 33.3667 21.2917 31.675 21.2917 28.9917C21.2917 24.9667 23.8 21.9625 26.6583 21.9625C29.1667 21.9625 30.3333 23.8 30.3333 26.1625C30.3333 28.6708 28.6708 32.2583 27.825 35.7C27.3292 38.5583 29.3417 41.0667 32.2583 41.0667C37.45 41.0667 41.475 35.525 41.475 27.7084C41.475 20.7084 36.4583 15.925 29.2542 15.925C21.0292 15.925 16.1875 22.05 16.1875 28.4958C16.1875 31.0042 17.0042 33.5416 18.3458 35.2042C18.6083 35.3792 18.6083 35.6125 18.5208 36.05L17.675 39.2291C17.675 39.725 17.3542 39.9 16.8583 39.55C13.125 37.9166 10.9667 32.6083 10.9667 28.3208C10.9667 19.1041 17.5 10.7333 30.1 10.7333C40.1333 10.7333 47.95 17.9375 47.95 27.5042C47.95 37.5375 41.7375 45.5875 32.8417 45.5875C30.0125 45.5875 27.2417 44.0708 26.25 42.2916L24.2958 49.2042C23.625 51.7125 21.7875 55.0667 20.5333 57.0792L20.5333 56.9917Z" fill="#CCCCCC" fill-opacity="1.000000" fill-rule="nonzero"/>
</svg>
