<svg width="57.318329" height="46.555786" viewBox="0 0 57.3183 46.5558" fill="none" xmlns="http://www.w3.org/2000/svg" xmlns:xlink="http://www.w3.org/1999/xlink">
	<desc>
			Created with Pixso.
	</desc>
	<defs/>
	<path id="Vector" d="M51.4296 11.6025C51.4675 12.1129 51.4675 12.6204 51.4675 13.1279C51.4675 28.6592 39.6462 46.5558 18.0425 46.5558C11.3867 46.5558 5.20333 44.6279 0 41.2795C0.945 41.3875 1.855 41.4254 2.83792 41.4254C8.12581 41.4382 13.264 39.67 17.4242 36.4059C14.9725 36.3615 12.5958 35.5526 10.6261 34.0922C8.65638 32.6317 7.19187 30.5927 6.43708 28.2596C7.16333 28.3676 7.8925 28.4404 8.65667 28.4404C9.70958 28.4404 10.7683 28.2946 11.7512 28.0409C9.09055 27.5037 6.69805 26.0614 4.98055 23.9595C3.26306 21.8575 2.3266 19.2256 2.33042 16.5112L2.33042 16.3655C3.89667 17.2375 5.71375 17.783 7.63875 17.8558C6.02609 16.7842 4.70377 15.3301 3.78974 13.6232C2.87572 11.9163 2.39841 10.0095 2.40042 8.07336C2.40042 5.89172 2.98083 3.89087 3.99875 2.14673C6.95082 5.77795 10.6327 8.74878 14.806 10.8665C18.9792 12.9843 23.5508 14.2019 28.2246 14.4404C28.0437 13.5654 27.9329 12.6583 27.9329 11.7483C27.9321 10.2053 28.2355 8.67725 28.8256 7.25159C29.4158 5.82581 30.2811 4.5304 31.3722 3.43933C32.4633 2.34827 33.7587 1.48291 35.1844 0.8927C36.6102 0.302612 38.1382 -0.000732422 39.6812 0C43.0646 0 46.1183 1.41748 48.265 3.70996C50.8952 3.20142 53.4174 2.24121 55.72 0.87207C54.8433 3.58691 53.0068 5.88904 50.5546 7.34705C52.8873 7.08105 55.1671 6.46753 57.3183 5.5271C55.7116 7.86951 53.7207 9.92346 51.4296 11.6025Z" fill="#CCCCCC" fill-opacity="1.000000" fill-rule="nonzero"/>
</svg>
